<svg  viewBox="0 0 48 48" xmlns="http://www.w3.org/2000/svg" xmlns:xlink="http://www.w3.org/1999/xlink"><linearGradient id="a" gradientTransform="matrix(47 0 0 45.576 .5 1.212)" gradientUnits="userSpaceOnUse" x1=".039894" x2=".777692" y1=".966257" y2=".097499"><stop offset="0" stop-color="#f9d423"/><stop offset=".51562375651" stop-color="#ff4e50"/><stop offset=".99130434783" stop-color="#8a2387"/></linearGradient><path d="m36.982 44.829.548 1.959h9.97l-14.242-45.576h-11.394l-21.364 39.879v5.697h7.121l9.89-17.661c1.45.184 2.878.509 4.267.983 1.837.627 3.589 1.51 5.184 2.606 1.724 1.211 3.305 2.621 4.686 4.202 1.595 1.837 3.005 3.817 4.216 5.939zm-4.792-17.114-4.629-16.533-6.365 11.366c.972.221 1.932.491 2.875.811 2.464.855 4.8 2.023 6.951 3.504.395.275.785.56 1.168.852z" fill="url(#a)" fill-rule="evenodd"/></svg>