<svg xmlns="http://www.w3.org/2000/svg" enable-background="new 0 0 512 512" version="1" viewBox="0 0 512 512" id="adobe-substance"><path fill="#FC2A31" d="M94.867,13.8h326.016C471.547,13.8,513,55.253,513,105.918v314.965C513,471.547,471.547,513,420.883,513
			H93.118C42.453,513,1,471.547,1,420.882V107.667C1,55.933,43.134,13.8,94.867,13.8"></path><path fill="#E1202A" d="M99.133,35.133h317.482c41.45,0,75.051,33.601,75.051,75.051v306.431c0,41.45-33.602,75.051-75.051,75.051
			H97.384c-41.45,0-75.051-33.601-75.051-75.051V111.933C22.333,69.267,56.466,35.133,99.133,35.133"></path><polygon fill="#FFF" points="257.215 117.923 131.537 191.522 131.537 256.513 307.142 312.465 256.785 343.455 174.578 297.832 175.439 284.92 131.537 271.147 131.537 336.138 253.772 408.876 382.463 336.568 382.463 271.577 205.567 214.764 257 185.496 337.701 231.55 337.27 242.74 382.463 255.222 382.463 191.522"></polygon></svg>